<svg contentScriptType="text/ecmascript" fill="none" xmlns:openbadges="http://openbadges.org" width="97" xmlns:xlink="http://www.w3.org/1999/xlink" zoomAndPan="magnify" contentStyleType="text/css" viewBox="0 0 97 97" height="97" preserveAspectRatio="xMidYMid meet" xmlns="http://www.w3.org/2000/svg" version="1.0"><openbadges:assertion baked-at="2026-04-02T09:15:07.496647628Z[UTC]" baked-by="BadgrPro" verify="https://api.badgr.io/public/assertions/nW1bGWECQkO3_p5UdnyeaQ"><![CDATA[{"type":"Assertion","id":"https://api.badgr.io/public/assertions/nW1bGWECQkO3_p5UdnyeaQ","@context":"https://w3id.org/openbadges/v2","recipient":{"type":"email","salt":"SGZ97EdHtb7RTAPe","hashed":true,"identity":"sha256$b59f7ccf90ae9e6deff9718d2c484e8301c3e48847ef28f01e6d16d1395953bc"},"badge":"https://api.badgr.io/public/badges/NW1wQ_NRRZOqUN9vtGR--A","image":{"id":"https://badges.parchment.com/public/assertions/nW1bGWECQkO3_p5UdnyeaQ/image"},"evidence":[],"revoked":false,"verification":{"type":"HostedBadge"}}]]></openbadges:assertion>
<g clip-path="url(#clip0_220_111)">
<path fill="url(#paint0_linear_220_111)" d="M53.2699 96.17C52.6999 96.17 52.1399 96.09 51.5999 95.92L48.9699 95.13C48.3299 94.94 47.6699 94.84 47.0099 94.84C46.4599 94.84 45.9099 94.91 45.3799 95.04L42.7099 95.7C42.2599 95.81 41.7899 95.87 41.3199 95.87C40.1899 95.87 39.0899 95.54 38.1399 94.92L35.8399 93.41C34.8199 92.74 33.6399 92.36 32.4199 92.31L29.6699 92.19C28.0699 92.12 26.5499 91.37 25.4999 90.15L23.7099 88.05C22.9199 87.12 21.8899 86.42 20.7399 86.02L18.1399 85.12C16.6199 84.6 15.3699 83.45 14.7099 81.98L13.5799 79.46C13.0799 78.34 12.2899 77.38 11.2999 76.67L9.05992 75.07C7.74992 74.14 6.86992 72.68 6.64992 71.08L6.26992 68.34C6.09992 67.13 5.61992 65.98 4.85992 65.02L3.14992 62.85C2.14992 61.58 1.71992 59.94 1.95992 58.34L2.36992 55.61C2.54992 54.4 2.39992 53.16 1.94992 52.03L0.919922 49.47C0.319922 47.97 0.359922 46.27 1.03992 44.81L2.19992 42.3C2.70992 41.19 2.91992 39.96 2.79992 38.74L2.52992 35.99C2.36992 34.38 2.88992 32.76 3.94992 31.55L5.75992 29.47C6.55992 28.55 7.10992 27.43 7.32992 26.22L7.83992 23.5C8.13992 21.91 9.08992 20.51 10.4399 19.64L12.7599 18.16C13.7899 17.5 14.6199 16.58 15.1799 15.49L16.4299 13.03C17.1599 11.59 18.4599 10.51 20.0099 10.07L22.6499 9.31C23.8199 8.97 24.8799 8.32 25.7199 7.43L27.6099 5.42C28.7099 4.26 30.2499 3.59 31.8399 3.59L34.6199 3.61C35.8599 3.61 37.0499 3.29 38.0899 2.68L40.4699 1.29C41.3599 0.77 42.3699 0.5 43.3999 0.5C43.9699 0.5 44.5299 0.58 45.0699 0.75L47.6999 1.54C48.3399 1.73 48.9999 1.83 49.6599 1.83C50.2099 1.83 50.7599 1.76 51.2899 1.63L53.9599 0.97C54.4199 0.86 54.8799 0.8 55.3499 0.8C56.4799 0.8 57.5799 1.13 58.5299 1.75L60.8299 3.26C61.8499 3.93 63.0299 4.31 64.2499 4.36L66.9999 4.48C68.5999 4.55 70.1199 5.3 71.1699 6.52L72.9599 8.62C73.7499 9.55 74.7799 10.25 75.9299 10.65L78.5299 11.55C80.0499 12.07 81.2999 13.22 81.9599 14.69L83.0899 17.21C83.5899 18.33 84.3799 19.29 85.3699 20L87.6099 21.6C88.9199 22.53 89.7999 23.99 90.0199 25.59L90.3999 28.33C90.5699 29.54 91.0499 30.69 91.8099 31.65L93.5199 33.82C94.5199 35.09 94.9499 36.73 94.7099 38.33L94.2999 41.06C94.1199 42.27 94.2699 43.51 94.7199 44.65L95.7499 47.21C96.3499 48.71 96.3099 50.41 95.6299 51.87L94.4699 54.38C93.9599 55.49 93.7499 56.72 93.8699 57.94L94.1399 60.69C94.2999 62.3 93.7799 63.92 92.7199 65.13L90.9099 67.21C90.1099 68.13 89.5599 69.25 89.3399 70.46L88.8299 73.18C88.5299 74.77 87.5799 76.17 86.2299 77.04L83.9099 78.52C82.8799 79.18 82.0499 80.1 81.4899 81.19L80.2399 83.65C79.5099 85.09 78.1999 86.17 76.6599 86.61L74.0199 87.37C72.8499 87.71 71.7899 88.36 70.9499 89.25L69.0599 91.26C67.9599 92.42 66.4199 93.09 64.8299 93.09L62.0499 93.07C60.8099 93.07 59.6199 93.39 58.5799 94L56.1999 95.39C55.3099 95.91 54.2999 96.18 53.2699 96.18V96.17Z"/>
<path fill="#212121" d="M43.3999 1C43.9199 1 44.4299 1.08 44.9299 1.23L47.5599 2.02C48.2399 2.23 48.9499 2.33 49.6699 2.33C50.2599 2.33 50.8499 2.26 51.4199 2.12L54.0899 1.46C54.5099 1.36 54.9299 1.31 55.3599 1.31C56.3899 1.31 57.3999 1.61 58.2599 2.18L60.5599 3.69C61.6599 4.41 62.9299 4.82 64.2299 4.88L66.9799 5C68.4399 5.07 69.8299 5.75 70.7899 6.87L72.5799 8.97C73.4299 9.97 74.5299 10.72 75.7699 11.15L78.3699 12.05C79.7599 12.53 80.8999 13.58 81.4999 14.92L82.6299 17.44C83.1699 18.64 84.0099 19.67 85.0799 20.43L87.3199 22.03C88.5199 22.88 89.3199 24.21 89.5199 25.68L89.8999 28.42C90.0799 29.72 90.5999 30.95 91.4099 31.98L93.1199 34.15C94.0299 35.31 94.4299 36.81 94.2099 38.28L93.7999 41.01C93.6099 42.31 93.7599 43.64 94.2499 44.86L95.2799 47.42C95.8299 48.79 95.7899 50.35 95.1699 51.69L94.0099 54.2C93.4599 55.39 93.2399 56.71 93.3699 58.02L93.6399 60.77C93.7799 62.24 93.3099 63.72 92.3399 64.83L90.5299 66.91C89.6699 67.9 89.0899 69.1 88.8399 70.39L88.3299 73.11C88.0599 74.56 87.1899 75.85 85.9499 76.64L83.6299 78.12C82.5299 78.82 81.6299 79.81 81.0299 80.98L79.7799 83.44C79.1099 84.75 77.9199 85.74 76.5099 86.15L73.8699 86.91C72.6099 87.27 71.4699 87.97 70.5699 88.92L68.6799 90.93C67.6799 91.99 66.2699 92.6 64.7899 92.6L61.9999 92.58C60.7099 92.58 59.4299 92.93 58.3099 93.58L55.9299 94.97C55.1199 95.44 54.1899 95.7 53.2499 95.7C52.7299 95.7 52.2199 95.62 51.7199 95.47L49.0899 94.68C48.4099 94.47 47.6999 94.37 46.9799 94.37C46.3899 94.37 45.7999 94.44 45.2299 94.58L42.5599 95.24C42.1399 95.34 41.7199 95.39 41.2899 95.39C40.2599 95.39 39.2499 95.09 38.3899 94.52L36.0899 93.01C34.9899 92.29 33.7199 91.88 32.4199 91.82L29.6699 91.7C28.2099 91.63 26.8199 90.95 25.8599 89.83L24.0699 87.73C23.2199 86.73 22.1199 85.98 20.8799 85.55L18.2799 84.65C16.8899 84.17 15.7499 83.12 15.1499 81.78L14.0199 79.26C13.4799 78.06 12.6399 77.03 11.5699 76.27L9.3299 74.67C8.1299 73.82 7.3299 72.49 7.1299 71.02L6.7499 68.28C6.5699 66.98 6.0499 65.75 5.2399 64.72L3.5299 62.55C2.6199 61.39 2.2199 59.89 2.4399 58.42L2.8499 55.69C3.0399 54.39 2.8899 53.06 2.3999 51.84L1.3699 49.28C0.819899 47.91 0.859899 46.35 1.4799 45.01L2.6399 42.5C3.1899 41.31 3.4099 39.99 3.2799 38.68L3.0099 35.93C2.8699 34.46 3.3399 32.98 4.3099 31.87L6.1199 29.79C6.9799 28.8 7.5599 27.6 7.8099 26.31L8.3199 23.59C8.5899 22.14 9.4599 20.85 10.6999 20.06L13.0199 18.58C14.1199 17.88 15.0199 16.89 15.6199 15.72L16.8699 13.26C17.5399 11.95 18.7299 10.96 20.1399 10.55L22.7799 9.79C24.0399 9.43 25.1799 8.73 26.0799 7.78L27.9699 5.77C28.9699 4.71 30.3799 4.1 31.8599 4.1L34.6499 4.12C35.9399 4.12 37.2199 3.77 38.3399 3.12L40.7199 1.73C41.5299 1.26 42.4599 1 43.3999 1ZM43.3999 0C42.2899 0 41.1899 0.29 40.2199 0.86L37.8399 2.25C36.8699 2.82 35.7799 3.11 34.6599 3.11C34.6499 3.11 34.6399 3.11 34.6199 3.11L31.8699 3.09C31.8699 3.09 31.8499 3.09 31.8299 3.09C30.0899 3.09 28.4299 3.81 27.2399 5.08L25.3499 7.09C24.5699 7.91 23.5899 8.52 22.5099 8.83L19.8699 9.59C18.1899 10.08 16.7799 11.24 15.9899 12.81L14.7399 15.27C14.2299 16.28 13.4499 17.14 12.4999 17.74L10.1799 19.22C8.6999 20.16 7.6799 21.68 7.3499 23.41L6.8399 26.13C6.6299 27.25 6.1299 28.29 5.3799 29.14L3.5699 31.22C2.4199 32.54 1.8599 34.29 2.0299 36.04L2.2999 38.79C2.4099 39.92 2.2199 41.06 1.7399 42.09L0.579899 44.6C-0.160101 46.2 -0.200101 48.03 0.449899 49.66L1.4799 52.22C1.8999 53.27 2.0399 54.42 1.8699 55.55L1.4599 58.28C1.1999 60.02 1.6699 61.79 2.7599 63.17L4.4699 65.34C5.1699 66.23 5.6199 67.29 5.7799 68.42L6.1599 71.16C6.3999 72.9 7.3499 74.47 8.7699 75.49L11.0099 77.09C11.9299 77.75 12.6599 78.64 13.1299 79.67L14.2599 82.19C14.9799 83.79 16.3199 85.03 17.9799 85.6L20.5799 86.5C21.6499 86.87 22.5999 87.52 23.3299 88.38L25.1199 90.48C26.2599 91.82 27.8999 92.62 29.6399 92.7L32.3899 92.82C33.5199 92.87 34.6099 93.22 35.5599 93.84L37.8599 95.35C38.8999 96.03 40.0999 96.38 41.3099 96.38C41.8099 96.38 42.3199 96.32 42.8199 96.2L45.4899 95.54C45.9899 95.42 46.4899 95.36 46.9999 95.36C47.6099 95.36 48.2299 95.45 48.8199 95.63L51.4499 96.42C52.0499 96.6 52.6599 96.69 53.2699 96.69C54.3799 96.69 55.4799 96.4 56.4499 95.83L58.8299 94.44C59.7999 93.87 60.8899 93.58 62.0099 93.58C62.0199 93.58 62.0299 93.58 62.0499 93.58L64.7999 93.6C64.7999 93.6 64.8199 93.6 64.8399 93.6C66.5799 93.6 68.2399 92.88 69.4299 91.61L71.3199 89.6C72.0999 88.78 73.0799 88.17 74.1599 87.86L76.7999 87.1C78.4799 86.61 79.8899 85.45 80.6799 83.88L81.9299 81.42C82.4399 80.41 83.2199 79.55 84.1699 78.95L86.4899 77.47C87.9699 76.53 88.9899 75.01 89.3199 73.28L89.8299 70.56C90.0399 69.44 90.5399 68.4 91.2899 67.55L93.0999 65.47C94.2499 64.15 94.8099 62.4 94.6399 60.65L94.3699 57.9C94.2599 56.77 94.4499 55.63 94.9299 54.6L96.0899 52.09C96.8299 50.49 96.8699 48.66 96.2199 47.03L95.1899 44.47C94.7699 43.42 94.6299 42.27 94.7999 41.14L95.2099 38.41C95.4699 36.67 94.9999 34.9 93.9099 33.52L92.1999 31.35C91.4999 30.46 91.0499 29.4 90.8899 28.27L90.5099 25.53C90.2699 23.79 89.3199 22.22 87.8999 21.2L85.6599 19.6C84.7399 18.94 84.0099 18.05 83.5399 17.02L82.4099 14.5C81.6899 12.9 80.3499 11.66 78.6899 11.09L76.0899 10.19C75.0199 9.82 74.0699 9.17 73.3399 8.31L71.5499 6.21C70.4099 4.87 68.7699 4.07 67.0299 3.99L64.2799 3.87C63.1499 3.82 62.0599 3.47 61.1099 2.85L58.8099 1.34C57.7699 0.66 56.5699 0.31 55.3599 0.31C54.8599 0.31 54.3499 0.37 53.8499 0.49L51.1799 1.15C50.6799 1.27 50.1799 1.33 49.6699 1.33C49.0599 1.33 48.4399 1.24 47.8499 1.06L45.2199 0.27C44.6199 0.09 44.0099 0 43.3999 0Z"/>
<path fill="white" stroke-miterlimit="10" d="M48.3299 82.4699C67.0799 82.4699 82.2799 67.1849 82.2799 48.3299C82.2799 29.4749 67.0799 14.1899 48.3299 14.1899C29.5798 14.1899 14.3799 29.4749 14.3799 48.3299C14.3799 67.1849 29.5798 82.4699 48.3299 82.4699Z" stroke="#212121"/>
<path fill="white" d="M14.92 73.6399L13.64 71.8499L12.49 72.1799L11.7 71.0699L17.41 69.5999L18.3 70.8499L15.04 75.7699L14.22 74.6199L14.91 73.6499L14.92 73.6399ZM14.73 71.5499L15.57 72.7199L15.98 72.1399C16.25 71.7599 16.53 71.3699 16.81 70.9999L16.77 70.9499C16.33 71.0899 15.86 71.2299 15.41 71.3599L14.73 71.5599V71.5499Z"/>
<path fill="white" d="M17.9 76.3898L16.7 77.5298L15.8 76.5798L19.79 72.7898L21.3 74.3798C22.28 75.4098 22.29 76.3698 21.37 77.2398C20.59 77.9798 19.46 78.0198 18.54 77.0598L17.91 76.3898H17.9ZM19.84 74.5598L18.76 75.5898L19.29 76.1498C19.68 76.5598 20.05 76.6098 20.42 76.2498C20.79 75.8998 20.77 75.5398 20.36 75.0998L19.84 74.5498V74.5598Z"/>
<path fill="white" d="M19.73 80.5399L23.34 76.3799L24.33 77.2399L20.72 81.3999L19.73 80.5399Z"/>
<path fill="white" d="M26.5101 79.0098L28.5401 80.2898C29.7101 81.0298 29.9901 81.7598 29.4901 82.5598C29.1401 83.1098 28.6701 83.2998 28.1001 83.1998L28.0801 83.2198C28.6401 83.7598 28.6701 84.2498 28.2801 84.8698C27.8001 85.6198 27.0001 85.8398 25.7901 85.0798L23.5601 83.6598L26.5101 79.0098ZM25.8801 82.4498L25.2601 83.4298L26.3201 84.0998C26.7401 84.3698 27.0701 84.2798 27.2501 83.9998C27.4501 83.6898 27.3901 83.3998 26.9301 83.1098L25.8801 82.4498ZM27.0201 80.6498L26.4101 81.6198L27.2901 82.1798C27.7101 82.4498 28.0101 82.4498 28.2401 82.0898C28.4401 81.7798 28.3601 81.5098 27.9201 81.2198L27.0301 80.6498H27.0201Z"/>
<path fill="white" d="M30.9699 81.7598L34.7299 83.4698L34.2099 84.6098L31.6499 83.4398L31.2599 84.2798L33.6199 85.3498L33.1599 86.3498L30.7999 85.2798L30.3899 86.1698L32.9599 87.3398L32.4399 88.4798L28.6799 86.7698L30.9699 81.7598Z"/>
<path fill="white" d="M34.3501 86.3897C34.8501 84.6997 36.0701 83.8197 37.8001 84.3297C39.2401 84.7497 39.7701 85.7397 39.5901 87.0097L38.3401 86.9097C38.4001 86.1697 38.1701 85.6697 37.4401 85.4597C36.5001 85.1797 35.9301 85.7297 35.6301 86.7597C35.3501 87.7097 35.5501 88.4697 36.5501 88.7597C37.5001 89.0397 37.8801 88.7097 38.0101 88.2697L38.0401 88.1797L36.7401 87.7997L37.0501 86.7597L39.5401 87.4897L38.6701 90.4397L37.4801 90.0897L37.8301 88.9097H37.8001C37.4201 89.5697 36.7801 89.9797 35.7901 89.6897C34.4101 89.2797 33.9001 87.9497 34.3701 86.3797L34.3501 86.3897Z"/>
<path fill="white" d="M40.1199 90.6798L41.0799 85.2598L42.3699 85.4898L41.4099 90.9098L40.1199 90.6798Z"/>
<path fill="white" d="M45.1599 89.1597C44.9499 88.6497 44.6099 87.7397 44.3799 87.0697H44.3399C44.3199 87.7697 44.2799 88.6297 44.2499 89.1697L44.1099 91.2797L42.8599 91.1997L43.2299 85.7097L45.2099 85.8397L45.9799 87.7397C46.2299 88.3797 46.5199 89.1997 46.7199 89.8297H46.7599C46.7799 89.1897 46.8199 88.5697 46.8499 88.0697L46.9899 85.9597L48.2399 86.0397L47.8699 91.5297L46.0999 91.4097L45.1599 89.1697V89.1597Z"/>
<path fill="white" d="M51.46 89.1599C51.17 88.6899 50.7 87.8398 50.37 87.2098H50.33C50.42 87.9098 50.51 88.7599 50.56 89.2999L50.74 91.3998L49.49 91.5098L49.01 86.0298L50.98 85.8598L52.03 87.6199C52.38 88.2199 52.79 88.9798 53.08 89.5698H53.12C53.05 88.9298 52.98 88.3098 52.94 87.8098L52.76 85.6998L54.01 85.5898L54.49 91.0698L52.73 91.2198L51.46 89.1498V89.1599Z"/>
<path fill="white" d="M54.8 85.4297L58.82 84.4797L59.1 85.6997L56.36 86.3497L56.57 87.2497L59.09 86.6597L59.34 87.7297L56.82 88.3197L57.04 89.2797L59.78 88.6297L60.06 89.8497L56.04 90.7997L54.79 85.4297H54.8Z"/>
<path fill="white" d="M62.7301 86.7697L62.0401 87.0397L62.7801 88.9297L61.5601 89.4097L59.5601 84.2697L61.8401 83.3797C63.0901 82.8897 63.9501 83.1997 64.3601 84.2497C64.6701 85.0397 64.4801 85.6797 63.9101 86.1597L66.0701 87.6297V87.6497L64.6301 88.2097L62.7401 86.7697H62.7301ZM61.2101 84.8897L61.6501 86.0197L62.6401 85.6297C63.1401 85.4297 63.3101 85.1397 63.1601 84.7597C63.0201 84.3997 62.7301 84.2997 62.2201 84.4997L61.2101 84.8897Z"/>
<path fill="white" d="M69.43 83.9198L70.31 85.3298L69.2 86.0298L66.27 81.3698L68.12 80.2098C69.32 79.4498 70.27 79.6298 70.94 80.6998C71.51 81.6098 71.33 82.7298 70.2 83.4398L69.42 83.9298L69.43 83.9198ZM68.01 81.6598L68.81 82.9298L69.47 82.5198C69.95 82.2198 70.07 81.8598 69.8 81.4298C69.53 80.9998 69.17 80.9498 68.66 81.2698L68.02 81.6698L68.01 81.6598Z"/>
<path fill="white" d="M75.75 79.9598L74.06 81.3698L74.48 82.4898L73.44 83.3598L71.53 77.7698L72.71 76.7898L77.87 79.6598L76.78 80.5698L75.75 79.9498V79.9598ZM73.67 80.3098L74.78 79.3898L74.17 79.0298C73.77 78.7898 73.36 78.5398 72.97 78.2898L72.92 78.3298C73.1 78.7598 73.27 79.2098 73.43 79.6498L73.68 80.3198L73.67 80.3098Z"/>
<path fill="white" d="M73.76 75.9297L76.83 72.6897L77.73 73.5497L76.65 74.6897L79.74 77.6197L78.83 78.5697L75.74 75.6397L74.65 76.7897L73.74 75.9297H73.76Z"/>
<path fill="white" d="M83.78 72.5298L82.04 71.2898L80.72 73.1398L82.46 74.3798L81.7 75.4498L77.21 72.2598L77.97 71.1898L79.69 72.4198L81.01 70.5698L79.29 69.3498L80.05 68.2798L84.54 71.4798L83.78 72.5498V72.5298Z"/>
<path fill="white" d="M30.38 13.3998L31.12 14.8898L29.94 15.4698L27.5 10.5298L29.46 9.55983C30.74 8.92983 31.65 9.19983 32.22 10.3398C32.7 11.2998 32.41 12.3998 31.21 12.9898L30.38 13.3998ZM29.19 11.0098L29.85 12.3498L30.55 12.0098C31.06 11.7598 31.21 11.4198 30.98 10.9598C30.76 10.5098 30.4 10.4198 29.86 10.6798L29.18 11.0198L29.19 11.0098Z"/>
<path fill="white" d="M33.31 10.74C32.8 9.15997 33.48 7.67997 35.13 7.14997C36.78 6.61997 38.18 7.42997 38.69 9.00997C39.2 10.59 38.59 12.09 36.89 12.63C35.19 13.18 33.82 12.32 33.31 10.74ZM37.44 9.39997C37.16 8.53997 36.45 7.97997 35.49 8.27997C34.53 8.57997 34.28 9.45997 34.56 10.32C34.88 11.31 35.57 11.81 36.53 11.5C37.49 11.19 37.76 10.38 37.44 9.39997Z"/>
<path fill="white" d="M39.5101 9.85989L40.7401 9.39989C40.9701 10.0299 41.5201 10.3099 42.1901 10.1899C42.7301 10.0999 43.0001 9.85989 42.9501 9.51989C42.9001 9.17989 42.5801 9.03989 41.6001 9.04989C40.0701 9.06989 39.4901 8.51989 39.3501 7.65989C39.1801 6.63989 39.8101 5.88989 41.2201 5.65989C42.7101 5.41989 43.4401 6.08989 43.7901 7.02989L42.5501 7.49989C42.3001 6.90989 41.9701 6.65989 41.3201 6.75989C40.8201 6.83989 40.6001 7.08989 40.6501 7.40989C40.7001 7.68989 40.8801 7.87989 42.0401 7.86989C43.6201 7.86989 44.1401 8.46989 44.2601 9.24989C44.4301 10.2799 43.8401 11.0699 42.2801 11.3299C40.5301 11.6099 39.7901 10.8299 39.5101 9.85989Z"/>
<path fill="white" d="M44.6499 5.30992L49.1099 5.16992L49.1499 6.41992L47.5799 6.46992L47.7099 10.7199L46.3999 10.7599L46.2699 6.49992L44.6899 6.54992L44.6499 5.29992V5.30992Z"/>
<path fill="white" d="M51.0501 10.7699L49.8101 10.6099L50.5101 5.13989L52.5801 5.40989L53.0301 7.66989C53.1101 8.04989 53.2201 8.79989 53.2901 9.51989H53.3101C53.5701 8.84989 53.8601 8.14989 54.0501 7.75989L55.0401 5.72989L56.9301 5.96989L56.2301 11.4399L54.9301 11.2699L55.2201 8.97989C55.3001 8.30989 55.4301 7.52989 55.5301 6.86989C55.2401 7.57989 54.8801 8.44989 54.4801 9.28989L53.5901 11.0899L52.4101 10.9399L52.0201 8.92989C51.8501 7.95989 51.7301 7.11989 51.6201 6.36989C51.5401 7.03989 51.4501 7.80989 51.3601 8.47989L51.0701 10.7699H51.0501Z"/>
<path fill="white" d="M60.59 11.5999L58.49 10.9499L57.77 11.9099L56.47 11.5099L60.11 6.86987L61.57 7.31987L61.97 13.2099L60.62 12.7899L60.58 11.5999H60.59ZM59.17 10.0499L60.55 10.4699L60.52 9.75987C60.5 9.28987 60.49 8.80987 60.49 8.34987L60.43 8.32987C60.17 8.70987 59.88 9.09987 59.6 9.47987L59.18 10.0499H59.17Z"/>
<path fill="white" d="M65.14 12.3399C65.14 11.7899 65.17 10.8199 65.21 10.1099L65.18 10.0899C64.9 10.7399 64.54 11.5099 64.3 11.9999L63.38 13.8999L62.26 13.3499L64.67 8.3999L66.45 9.2699V11.3199C66.44 12.0099 66.4 12.8799 66.35 13.5399L66.38 13.5599C66.64 12.9699 66.91 12.4099 67.13 11.9599L68.06 10.0499L69.18 10.5999L66.77 15.5499L65.18 14.7699L65.15 12.3399H65.14Z"/>
<path fill="white" d="M89.1399 47.5798L91.4199 48.3298L89.1399 49.0798L88.3999 51.3798L87.6599 49.0798L85.3799 48.3298L87.6599 47.5798L88.3999 45.2798L89.1399 47.5798Z"/>
<path fill="white" d="M9.02001 47.5798L11.3 48.3298L9.02001 49.0798L8.28001 51.3798L7.54001 49.0798L5.26001 48.3298L7.54001 47.5798L8.28001 45.2798L9.02001 47.5798Z"/>
<path d="M9.26001 38.7599C11.22 30.6499 15.62 23.5099 21.62 18.1399" stroke-linejoin="round" stroke-linecap="round" stroke="white"/>
<path d="M74.9099 18.1499C80.9199 23.4999 85.2999 30.6499 87.2599 38.7499" stroke-linejoin="round" stroke-linecap="round" stroke="white"/>
<path fill="#FFE396" d="M47.3299 27.3801L30.6899 36.9901C30.0699 37.3501 29.6899 38.0101 29.6899 38.7201V57.9401C29.6899 58.6501 30.0699 59.3101 30.6899 59.6701L47.3299 69.2801C47.9499 69.6401 48.7099 69.6401 49.3299 69.2801L65.9699 59.6701C66.5899 59.3101 66.9699 58.6501 66.9699 57.9401V38.7201C66.9699 38.0101 66.5899 37.3501 65.9699 36.9901L49.3299 27.3801C48.7099 27.0201 47.9499 27.0201 47.3299 27.3801Z" stroke-linejoin="round" stroke-linecap="round" stroke="#3A3836"/>
<path d="M47.3299 27.3801L30.6899 36.9901C30.0699 37.3501 29.6899 38.0101 29.6899 38.7201V57.9401C29.6899 58.6501 30.0699 59.3101 30.6899 59.6701L47.3299 69.2801C47.9499 69.6401 48.7099 69.6401 49.3299 69.2801L65.9699 59.6701C66.5899 59.3101 66.9699 58.6501 66.9699 57.9401V38.7201C66.9699 38.0101 66.5899 37.3501 65.9699 36.9901L49.3299 27.3801C48.7099 27.0201 47.9499 27.0201 47.3299 27.3801Z" stroke-miterlimit="10" stroke="#212121"/>
<g opacity="0.5">
<path fill="url(#paint1_linear_220_111)" d="M47.72 36.4399L38.34 41.8499C37.96 42.0699 37.73 42.4699 37.73 42.9099V53.7399C37.73 54.1799 37.96 54.5799 38.34 54.7999L47.72 60.2099C48.1 60.4299 48.57 60.4299 48.95 60.2099L58.33 54.7999C58.71 54.5799 58.94 54.1799 58.94 53.7399V42.9099C58.94 42.4699 58.71 42.0699 58.33 41.8499L48.95 36.4399C48.57 36.2199 48.1 36.2199 47.72 36.4399Z"/>
</g>
<path fill="url(#paint2_linear_220_111)" d="M48.3298 54.3801C48.3298 54.3801 48.2798 54.3801 48.2598 54.3601L43.1398 51.4001C43.1398 51.4001 43.0698 51.3301 43.0698 51.2901V45.3801C43.0698 45.3801 43.0998 45.2901 43.1398 45.2701L48.2598 42.3101H48.3898L53.5098 45.2701C53.5098 45.2701 53.5798 45.3401 53.5798 45.3801V51.2901C53.5798 51.2901 53.5498 51.3801 53.5098 51.4001L48.3898 54.3601L48.3198 54.3801H48.3298Z"/>
<path fill="white" d="M48.3298 42.85L53.0798 45.59V51.08L48.3298 53.82L43.5798 51.08V45.59L48.3298 42.85ZM48.3298 41.79C48.2198 41.79 48.1098 41.82 48.0098 41.87L42.8898 44.83C42.6898 44.94 42.5698 45.15 42.5698 45.38V51.29C42.5698 51.52 42.6898 51.72 42.8898 51.84L48.0098 54.8C48.1098 54.86 48.2198 54.88 48.3298 54.88C48.4398 54.88 48.5498 54.85 48.6498 54.8L53.7698 51.84C53.9698 51.73 54.0898 51.52 54.0898 51.29V45.38C54.0898 45.15 53.9698 44.95 53.7698 44.83L48.6498 41.87C48.5498 41.81 48.4398 41.79 48.3298 41.79Z"/>
<path fill="url(#paint3_linear_220_111)" d="M48.33 53.2699C48.33 53.2699 48.28 53.2699 48.26 53.2499L44.09 50.8499C44.09 50.8499 44.02 50.7799 44.02 50.7399V45.9299C44.02 45.9299 44.05 45.8399 44.09 45.8199L48.26 43.4199H48.39L52.56 45.8199C52.56 45.8199 52.63 45.8899 52.63 45.9299V50.7399C52.63 50.7399 52.6 50.8299 52.56 50.8499L48.39 53.2499L48.32 53.2699H48.33Z"/>
<path fill="#212121" d="M48.33 43.9499L52.13 46.1399V50.5199L48.33 52.7099L44.53 50.5199V46.1399L48.33 43.9499ZM48.33 42.8899C48.22 42.8899 48.11 42.9199 48.01 42.9699L43.84 45.3699C43.64 45.4799 43.52 45.6899 43.52 45.9199V50.7299C43.52 50.9599 43.64 51.1599 43.84 51.2799L48.01 53.6799C48.11 53.7399 48.22 53.7599 48.33 53.7599C48.44 53.7599 48.55 53.7299 48.65 53.6799L52.82 51.2799C53.02 51.1699 53.14 50.9599 53.14 50.7299V45.9199C53.14 45.6899 53.02 45.4899 52.82 45.3699L48.65 42.9699C48.55 42.9099 48.44 42.8899 48.33 42.8899Z"/>
<path d="M48.3298 53.8899V59.9599" stroke-miterlimit="10" stroke="white"/>
<path d="M48.3298 36.8899V42.9599" stroke-miterlimit="10" stroke="white"/>
<path d="M47.72 36.4399L38.34 41.8499C37.96 42.0699 37.73 42.4699 37.73 42.9099V53.7399C37.73 54.1799 37.96 54.5799 38.34 54.7999L47.72 60.2099C48.1 60.4299 48.57 60.4299 48.95 60.2099L58.33 54.7999C58.71 54.5799 58.94 54.1799 58.94 53.7399V42.9099C58.94 42.4699 58.71 42.0699 58.33 41.8499L48.95 36.4399C48.57 36.2199 48.1 36.2199 47.72 36.4399Z" stroke-miterlimit="10" stroke="#231F20"/>
</g>
<defs>
<linearGradient x1="48.3299" xmlns:xlink="http://www.w3.org/1999/xlink" gradientUnits="userSpaceOnUse" x2="48.3299" y1="96.17" y2="0.5" xlink:type="simple" xlink:actuate="onLoad" id="paint0_linear_220_111" xlink:show="other">
<stop stop-color="#FF6C37"/>
<stop stop-color="#FFB400" offset="1"/>
</linearGradient>
<linearGradient x1="37.73" xmlns:xlink="http://www.w3.org/1999/xlink" gradientUnits="userSpaceOnUse" x2="58.94" y1="48.3299" y2="48.3299" xlink:type="simple" xlink:actuate="onLoad" id="paint1_linear_220_111" xlink:show="other">
<stop stop-color="#FF6C37"/>
<stop stop-color="#FFB400" offset="1"/>
</linearGradient>
<linearGradient x1="43.0798" xmlns:xlink="http://www.w3.org/1999/xlink" gradientUnits="userSpaceOnUse" x2="53.5798" y1="48.3401" y2="48.3401" xlink:type="simple" xlink:actuate="onLoad" id="paint2_linear_220_111" xlink:show="other">
<stop stop-color="#FF6C37"/>
<stop stop-color="#FFB400" offset="1"/>
</linearGradient>
<linearGradient x1="44.04" xmlns:xlink="http://www.w3.org/1999/xlink" gradientUnits="userSpaceOnUse" x2="52.63" y1="48.3399" y2="48.3399" xlink:type="simple" xlink:actuate="onLoad" id="paint3_linear_220_111" xlink:show="other">
<stop stop-color="#FF6C37"/>
<stop stop-color="#FFB400" offset="1"/>
</linearGradient>
<clipPath id="clip0_220_111">
<rect fill="white" height="96.67" width="96.67"/>
</clipPath>
</defs>
</svg>